<?xml version="1.0" encoding="UTF-8" standalone="no"?>
<svg id="eightlogo" width="199px" height="102px" viewBox="0 0 199 102" version="1.1" xmlns="http://www.w3.org/2000/svg" xmlns:xlink="http://www.w3.org/1999/xlink">
    <!-- Generator: Sketch 3.6.1 (26313) - http://www.bohemiancoding.com/sketch -->
    <title>Untitled</title>
    <desc>Created with Sketch.</desc>
    <defs></defs>
    <g id="Page-1" stroke="none" stroke-width="1" fill="none" fill-rule="evenodd">
        <path class="shade1" d="M48.0332031,52.09375 C56.9206174,57.8444298 61.3642578,65.4009949 61.3642578,74.7636719 C61.3642578,82.605508 58.5602494,88.9620525 52.9521484,93.8334961 C47.3440475,98.7049397 40.0251103,101.140625 30.9951172,101.140625 C21.775019,101.140625 14.3135051,98.7287025 8.61035156,93.9047852 C2.90719805,89.0808678 0.0556640625,82.7956117 0.0556640625,75.0488281 C0.0556640625,65.496046 4.5230673,57.8919554 13.4580078,52.2363281 C9.65590547,48.9570149 6.87565983,45.7490391 5.1171875,42.6123047 C3.35871517,39.4755703 2.47949219,35.88739 2.47949219,31.8476562 C2.47949219,25.2890297 4.93894025,19.6097245 9.85791016,14.8095703 C14.7768801,10.0094161 21.6799686,7.609375 30.5673828,7.609375 C39.2171656,7.609375 46.1202542,9.77178827 51.2768555,14.0966797 C56.4334568,18.4215711 59.0117188,24.1721646 59.0117188,31.3486328 C59.0117188,39.6657317 55.3522501,46.5807016 48.0332031,52.09375 L48.0332031,52.09375 Z M42.0449219,71.9833984 C42.0449219,68.7991377 40.9280711,66.078299 38.6943359,63.8208008 C36.4606008,61.5633025 33.7516435,60.4345703 30.5673828,60.4345703 C27.5257009,60.4345703 24.9117948,61.6108281 22.7255859,63.9633789 C20.5393771,66.3159297 19.4462891,69.1318195 19.4462891,72.4111328 C19.4462891,75.4052884 20.5750213,78.0786015 22.8325195,80.4311523 C25.0900178,82.7837032 27.6682798,83.9599609 30.5673828,83.9599609 C33.7516435,83.9599609 36.4606008,82.7955846 38.6943359,80.4667969 C40.9280711,78.1380092 42.0449219,75.310238 42.0449219,71.9833984 L42.0449219,71.9833984 Z M76.9619141,11.9951172 C76.9619141,8.75779631 78.1323125,5.9687617 80.4731445,3.62792969 C82.8139765,1.28709767 85.6279133,0.116699219 88.9150391,0.116699219 C92.2021649,0.116699219 95.0161016,1.28709767 97.3569336,3.62792969 C99.6977656,5.9687617 100.868164,8.75779631 100.868164,11.9951172 C100.868164,15.282243 99.6977656,18.0961797 97.3569336,20.4370117 C95.0161016,22.7778437 92.2021649,23.9482422 88.9150391,23.9482422 C85.6279133,23.9482422 82.8139765,22.7778437 80.4731445,20.4370117 C78.1323125,18.0961797 76.9619141,15.282243 76.9619141,11.9951172 L76.9619141,11.9951172 Z M79.4272461,35.7519531 L98.5522461,35.7519531 L98.5522461,100 L79.4272461,100 L79.4272461,35.7519531 Z M114.938477,6.39746094 L136.396484,6.39746094 L155.216797,35.0556641 L174.678711,6.39746094 L195.495117,6.39746094 L165.910156,50.953125 L198.417969,100 L177.530273,100 L155.359375,66.7080078 L133.188477,100 L111.873047,100 L144.737305,51.0957031 L114.938477,6.39746094 Z" id="8iX" fill="#ABCE6F"></path>
        <path class="shade2" d="M61.3642578,74.7636719 C61.3642578,82.605508 58.5602494,88.9620525 52.9521484,93.8334961 C47.3440475,98.7049397 40.0251103,101.140625 30.9951172,101.140625 C21.775019,101.140625 14.3135051,98.7287025 8.61035156,93.9047852 C2.90719805,89.0808678 55.6644723,18.6171772 56.9522935,21.3784192 C58.3252472,24.3221953 59.0117187,27.6455919 59.0117187,31.3486328 C59.0117187,39.6657317 55.3522501,46.5807016 48.0332031,52.09375 C56.9206174,57.8444298 61.3642578,65.4009949 61.3642578,74.7636719 Z M88.9150391,0.116699219 C92.2021649,0.116699219 95.0161016,1.28709767 97.3569336,3.62792969 C99.6977656,5.9687617 100.868164,8.75779631 100.868164,11.9951172 C100.868164,15.282243 99.6977656,18.0961797 97.3569336,20.4370117 C95.0161016,22.7778437 92.2021649,23.9482422 88.9150391,23.9482422 C85.6279133,23.9482422 85.6279133,0.116699219 88.9150391,0.116699219 Z M94.3686101,35.7519531 L98.5522461,35.7519531 L98.5522461,100 L79.4272461,100 C79.4272461,100 92.5524215,35.7519531 94.3686101,35.7519531 Z M195.495117,6.39746094 L165.910156,50.953125 L198.417969,100 L177.530273,100 L155.359375,66.7080078 L133.188477,100 L118.402344,100 C116.770924,100 195.495117,6.39746094 195.495117,6.39746094 Z" id="8iX" fill="#92B851"></path>
        <path class="whitefill" d="M42.0449219,71.9833984 C42.0449219,68.7991377 40.9280711,66.078299 38.6943359,63.8208008 C36.4606008,61.5633025 33.7516435,60.4345703 30.5673828,60.4345703 C27.5257009,60.4345703 24.9117948,61.6108281 22.7255859,63.9633789 C20.5393771,66.3159297 19.4462891,69.1318195 19.4462891,72.4111328 C19.4462891,75.4052884 20.5750213,78.0786015 22.8325195,80.4311523 C25.0900178,82.7837032 27.6682798,83.9599609 30.5673828,83.9599609 C33.7516435,83.9599609 36.4606008,82.7955846 38.6943359,80.4667969 C40.9280711,78.1380092 42.0449219,75.310238 42.0449219,71.9833984 L42.0449219,71.9833984 Z" id="Path" fill="#FFFFFF"></path>
        <path class="whitefill" d="M40.4765625,34.4140625 C40.4765625,31.4674332 39.5616953,29.0079851 37.7319336,27.0356445 C35.9021718,25.0633039 33.6090633,24.0771484 30.8525391,24.0771484 C28.1435411,24.0771484 25.8860767,24.9920156 24.0800781,26.8217773 C22.2740795,28.6515391 21.3710938,30.8971221 21.3710938,33.5585938 C21.3710938,36.3151179 22.2740795,38.6319893 24.0800781,40.5092773 C25.8860767,42.3865654 28.1435411,43.3251953 30.8525391,43.3251953 C33.3239056,43.3251953 35.5457258,42.4103282 37.5180664,40.5805664 C39.490407,38.7508047 40.4765625,36.6953239 40.4765625,34.4140625 L40.4765625,34.4140625 Z" id="Path" fill="#FFFFFF"></path>
    </g>
</svg>