<svg width="1300pt" height="635pt" viewBox="0 0 1300 635" version="1.1" xmlns="http://www.w3.org/2000/svg">
<path class="LOGO_COLOUR1" fill="#abce6f" d=" M 97.00 29.11 C 128.45 10.90 164.81 2.15 200.97 0.87 C 208.63 0.14 216.37 -0.12 224.00 1.01 C 246.23 2.23 268.42 6.01 289.46 13.40 C 320.72 24.00 349.87 42.45 370.53 68.46 C 381.62 82.61 390.53 98.59 395.98 115.75 C 392.36 122.01 387.75 127.60 383.47 133.41 C 331.07 204.37 278.64 275.30 226.26 346.27 C 224.69 348.30 222.84 350.28 222.35 352.88 C 221.65 352.77 220.94 352.66 220.25 352.55 L 218.94 351.65 C 197.58 349.72 175.39 354.64 157.47 366.61 C 138.41 379.96 124.86 401.58 123.02 424.97 C 122.96 426.81 123.48 428.60 123.75 430.41 C 123.68 445.20 125.92 460.25 132.80 473.51 C 123.61 484.23 115.94 496.16 107.26 507.29 C 89.83 531.22 71.95 554.82 54.61 578.81 C 40.35 565.42 28.78 549.29 19.76 531.97 C 8.58 510.68 2.56 486.91 0.84 462.99 C 1.14 451.70 1.04 440.40 0.93 429.10 C 4.35 388.00 24.55 348.62 55.84 321.77 C 65.65 313.45 76.28 305.93 87.98 300.48 C 82.72 296.82 77.03 293.81 72.01 289.80 C 50.33 273.55 35.50 249.56 27.15 224.04 C 20.81 205.09 18.32 185.00 18.54 165.06 C 18.62 139.54 24.01 113.74 36.25 91.22 C 49.85 65.13 71.51 43.65 97.00 29.11 Z" />
<path class="LOGO_COLOUR1" fill="#abce6f" d=" M 544.41 17.32 C 558.19 7.80 575.28 3.88 591.89 4.81 C 609.33 5.38 626.51 11.90 639.82 23.21 L 639.74 23.58 C 636.51 38.85 634.53 54.35 631.59 69.67 C 627.80 92.46 623.69 115.19 620.04 138.01 C 619.66 139.16 619.84 140.91 618.40 141.36 C 612.05 144.20 605.16 145.70 598.27 146.45 C 598.59 146.74 599.22 147.32 599.54 147.61 L 600.01 148.03 C 599.43 147.92 598.27 147.69 597.70 147.57 C 591.66 146.63 585.43 146.65 579.41 147.67 C 553.13 146.19 529.34 127.91 518.72 104.14 C 512.35 90.09 511.32 73.93 514.86 59.00 C 519.05 42.05 530.15 27.21 544.41 17.32 Z" />
<path class="LOGO_COLOUR1" fill="#abce6f" d=" M 732.29 11.07 C 735.78 10.28 739.41 10.76 742.96 10.68 C 784.62 10.67 826.28 10.71 867.94 10.67 C 869.95 10.47 871.98 11.05 872.94 12.99 C 916.67 81.51 960.22 150.16 1004.06 218.62 C 1024.35 186.98 1044.13 155.00 1064.24 123.25 C 1087.84 85.75 1111.46 48.27 1135.04 10.76 C 1171.00 10.59 1206.97 10.73 1242.94 10.68 C 1251.70 10.95 1260.52 10.10 1269.25 11.15 C 1089.46 214.07 909.64 416.95 729.84 619.86 C 727.51 623.31 723.27 623.47 719.52 623.87 C 716.27 618.80 713.70 613.33 710.86 608.03 C 708.74 604.93 712.24 602.21 713.69 599.69 C 780.55 501.57 847.35 403.39 914.17 305.25 C 915.25 304.23 914.53 303.03 913.88 302.01 C 850.73 211.51 787.56 121.00 724.38 30.51 C 722.21 28.34 724.58 25.72 725.53 23.58 C 727.94 19.49 729.68 15.03 732.29 11.07 Z" />
<path class="LOGO_COLOUR2" fill="#92b851" d=" M 729.84 619.86 C 909.64 416.95 1089.46 214.07 1269.25 11.15 C 1272.73 16.98 1275.91 23.02 1278.83 29.15 C 1277.71 32.08 1275.54 34.44 1273.85 37.04 C 1212.65 126.24 1151.45 215.45 1090.24 304.64 C 1160.19 405.30 1230.04 506.03 1300.00 606.67 L 1300.00 607.33 C 1296.25 612.54 1293.80 618.52 1290.81 624.17 C 1253.57 624.50 1216.32 624.22 1179.08 624.32 C 1169.76 624.11 1160.41 624.71 1151.12 624.06 C 1145.99 616.72 1141.59 608.87 1136.72 601.35 C 1091.71 529.35 1046.70 457.34 1001.68 385.35 C 979.19 420.73 957.34 456.52 935.11 492.07 C 907.99 535.64 880.93 579.25 853.79 622.80 C 853.16 624.41 851.38 624.24 849.97 624.33 C 810.66 624.29 771.34 624.33 732.03 624.31 C 727.85 624.32 723.66 624.57 719.52 623.87 C 723.27 623.47 727.51 623.31 729.84 619.86 Z" />
<path class="LOGO_COLOUR2" fill="#92b851" d=" M 631.59 69.67 C 634.53 54.35 636.51 38.85 639.74 23.58 C 652.44 33.82 661.25 48.78 663.78 64.92 C 666.18 80.32 664.11 96.64 656.48 110.37 C 645.07 131.08 622.94 145.10 599.54 147.61 C 599.22 147.32 598.59 146.74 598.27 146.45 C 605.16 145.70 612.05 144.20 618.40 141.36 C 619.84 140.91 619.66 139.16 620.04 138.01 C 623.69 115.19 627.80 92.46 631.59 69.67 Z" />
<path class="LOGO_COLOUR2" fill="#92b851" d=" M 192.99 109.77 C 195.78 109.36 198.86 108.23 201.49 109.79 C 187.22 111.07 172.90 116.33 162.69 126.66 C 153.19 136.08 146.36 148.26 143.78 161.42 C 142.93 160.09 143.02 158.50 143.41 157.05 C 146.58 144.75 153.27 133.32 162.72 124.80 C 170.76 116.55 181.78 111.77 192.99 109.77 Z" />
<path fill="#ffffff" d=" M 201.49 109.79 C 217.38 108.36 234.23 110.25 248.00 118.84 C 263.65 128.52 275.48 144.67 278.76 162.90 C 281.35 177.37 280.18 192.70 274.33 206.27 C 267.20 223.26 253.04 237.14 235.90 243.92 C 220.30 250.34 202.57 249.85 186.51 245.43 C 169.78 240.63 156.42 227.51 149.13 211.97 C 145.47 204.29 143.62 195.90 142.51 187.51 C 141.93 181.29 141.98 175.02 142.57 168.80 C 142.89 166.33 143.31 163.87 143.78 161.42 C 146.36 148.26 153.19 136.08 162.69 126.66 C 172.90 116.33 187.22 111.07 201.49 109.79 Z" />
<path class="LOGO_COLOUR2" fill="#92b851" d=" M 383.47 133.41 C 387.75 127.60 392.36 122.01 395.98 115.75 C 405.46 146.75 405.96 180.29 398.72 211.81 C 391.86 240.30 377.60 267.90 354.70 286.74 C 348.60 291.84 341.94 296.27 334.96 300.06 C 333.20 300.50 334.86 302.11 335.78 302.26 C 376.38 322.77 406.57 362.00 417.24 406.10 C 422.38 426.60 422.82 448.00 420.80 468.95 C 419.01 486.79 415.00 504.50 407.98 521.04 C 394.78 551.89 372.87 579.11 344.91 597.80 C 311.71 620.27 271.67 630.66 232.05 633.59 C 223.65 633.65 215.33 635.44 206.92 634.63 C 189.50 633.74 172.03 632.39 154.92 628.80 C 121.23 622.11 88.43 608.30 62.29 585.67 C 59.68 583.44 57.20 581.06 54.61 578.81 C 71.95 554.82 89.83 531.22 107.26 507.29 C 115.94 496.16 123.61 484.23 132.80 473.51 C 139.91 487.24 151.54 498.40 165.01 505.86 C 183.82 516.17 206.13 518.29 227.14 515.67 C 243.84 513.65 260.02 506.86 272.66 495.69 C 284.89 485.20 293.73 470.76 297.04 454.96 C 300.62 438.19 300.49 420.13 293.84 404.12 C 287.51 388.82 276.65 375.29 262.62 366.39 C 250.53 358.74 236.54 354.33 222.35 352.88 C 222.84 350.28 224.69 348.30 226.26 346.27 C 278.64 275.30 331.07 204.37 383.47 133.41 Z" />
<path class="LOGO_COLOUR1" fill="#abce6f" d=" M 537.00 202.00 C 538.18 200.41 540.27 200.67 542.01 200.64 C 564.36 200.79 586.71 200.57 609.06 200.75 L 608.93 201.71 C 585.77 339.08 561.96 476.35 538.66 613.71 C 538.18 616.53 537.57 619.33 536.94 622.12 C 533.89 619.10 530.66 616.23 527.87 612.96 C 526.85 611.88 527.16 610.29 527.05 608.96 C 527.07 495.65 527.06 382.34 527.06 269.03 C 527.20 250.05 526.80 231.03 527.25 212.06 C 530.22 208.46 533.86 205.45 537.00 202.00 Z" />
<path class="LOGO_COLOUR2" fill="#92b851" d=" M 608.93 201.71 C 618.94 201.76 628.96 201.50 638.96 201.81 C 641.98 203.79 644.12 206.81 646.80 209.18 C 648.30 210.91 650.94 212.35 650.59 215.00 C 650.56 346.99 650.56 478.99 650.59 610.98 C 650.99 613.64 648.33 615.06 646.82 616.79 C 644.10 619.16 641.99 622.26 638.93 624.20 C 606.63 624.48 574.32 624.21 542.01 624.34 C 539.95 624.68 538.28 623.53 536.94 622.12 C 537.57 619.33 538.18 616.53 538.66 613.71 C 561.96 476.35 585.77 339.08 608.93 201.71 Z" />
<path class="LOGO_COLOUR2" fill="#92b851" d=" M 157.47 366.61 C 175.39 354.64 197.58 349.72 218.94 351.65 L 220.25 352.55 C 202.19 351.27 183.67 354.27 167.44 362.45 C 142.13 375.07 124.53 402.07 123.75 430.41 C 123.48 428.60 122.96 426.81 123.02 424.97 C 124.86 401.58 138.41 379.96 157.47 366.61 Z" />
</svg>